<svg width="140" height="120" viewBox="0 0 140 120" fill="none" xmlns="http://www.w3.org/2000/svg">
<path d="M0 29.1485C0 34.4183 1.26255 39.3038 3.78766 43.8051C6.42255 48.1966 9.99064 51.7098 14.4919 54.3447C18.9932 56.9796 24.0434 58.297 29.6426 58.297C35.3515 58.297 40.4017 56.9796 44.7932 54.3447C49.2945 51.7098 52.8077 48.1966 55.3328 43.8051C57.8579 39.3038 59.1204 34.4183 59.1204 29.1485C59.1204 23.6591 57.8579 18.7187 55.3328 14.3272C52.8077 9.93575 49.2945 6.47745 44.7932 3.95234C40.4017 1.31745 35.3515 0 29.6426 0C24.0434 0 18.9932 1.31745 14.4919 3.95234C9.99064 6.47745 6.42255 9.93575 3.78766 14.3272C1.26255 18.7187 0 23.6591 0 29.1485ZM17.7855 29.1485C17.7855 26.843 18.2796 24.757 19.2677 22.8906C20.2557 21.0243 21.6281 19.5421 23.3847 18.4443C25.1413 17.2366 27.2272 16.6328 29.6426 16.6328C32.0579 16.6328 34.0889 17.2366 35.7357 18.4443C37.4923 19.5421 38.8647 21.0243 39.8528 22.8906C40.8409 24.757 41.3349 26.843 41.3349 29.1485C41.3349 31.3442 40.8409 33.4302 39.8528 35.4064C38.8647 37.2728 37.4923 38.7549 35.7357 39.8528C34.0889 40.9506 32.0579 41.4996 29.6426 41.4996C27.2272 41.4996 25.1413 40.9506 23.3847 39.8528C21.6281 38.7549 20.2557 37.2728 19.2677 35.4064C18.2796 33.4302 17.7855 31.3442 17.7855 29.1485ZM74.9298 91.3979C74.9298 96.7774 76.1923 101.663 78.7174 106.054C81.3523 110.446 84.9204 113.959 89.4217 116.594C93.923 119.229 98.9732 120.546 104.572 120.546C110.281 120.546 115.331 119.229 119.723 116.594C124.224 113.959 127.737 110.446 130.263 106.054C132.788 101.663 134.05 96.7774 134.05 91.3979C134.05 86.0183 132.788 81.1328 130.263 76.7413C127.737 72.24 124.224 68.7268 119.723 66.2017C115.331 63.5668 110.281 62.2494 104.572 62.2494C98.9732 62.2494 93.923 63.5668 89.4217 66.2017C84.9204 68.7268 81.3523 72.24 78.7174 76.7413C76.1923 81.1328 74.9298 86.0183 74.9298 91.3979ZM92.7153 91.3979C92.7153 89.0923 93.2094 87.0064 94.1975 85.14C95.1855 83.2736 96.5579 81.7915 98.3145 80.6936C100.071 79.5957 102.157 79.0468 104.572 79.0468C106.988 79.0468 109.019 79.5957 110.666 80.6936C112.422 81.7915 113.794 83.2736 114.783 85.14C115.771 87.0064 116.265 89.0923 116.265 91.3979C116.265 93.5936 115.771 95.6796 114.783 97.6558C113.794 99.5221 112.422 101.004 110.666 102.102C109.019 103.2 106.988 103.749 104.572 103.749C102.157 103.749 100.071 103.2 98.3145 102.102C96.5579 101.004 95.1855 99.5221 94.1975 97.6558C93.2094 95.6796 92.7153 93.5936 92.7153 91.3979ZM98.3145 2.63489L14.3272 117.911H35.9004L119.888 2.63489H98.3145Z" fill="white" fill-opacity="0.08"/>
</svg>
